<svg width="40" height="40" viewBox="0 0 40 40" fill="none" xmlns="http://www.w3.org/2000/svg">
<path d="M3.33398 25.4838V9.51709C3.33398 7.30043 4.61732 6.76709 6.18398 8.33376L10.5007 12.6504C11.1507 13.3004 12.2173 13.3004 12.8507 12.6504L18.8173 6.66709C18.9715 6.51259 19.1547 6.39001 19.3563 6.30637C19.5579 6.22274 19.774 6.17969 19.9923 6.17969C20.2106 6.17969 20.4267 6.22274 20.6284 6.30637C20.83 6.39001 21.0131 6.51259 21.1673 6.66709L27.1507 12.6504C27.8007 13.3004 28.8673 13.3004 29.5007 12.6504L33.8173 8.33376C35.384 6.76709 36.6673 7.30043 36.6673 9.51709V25.5004C36.6673 30.5004 33.334 33.8338 28.334 33.8338H11.6673C7.06732 33.8171 3.33398 30.0838 3.33398 25.4838Z" fill="#EDCA13" stroke="#EDCA13" stroke-width="1.5" stroke-linecap="round" stroke-linejoin="round"/>
</svg>
