<svg width="67" height="43" viewBox="0 0 67 43" fill="none" xmlns="http://www.w3.org/2000/svg">
<g clip-path="url(#clip0_588_3157)">
<path d="M59.4783 1.08203H3.9107C2.34308 1.08203 1.07227 2.36419 1.07227 3.94581V39.0542C1.07227 40.6358 2.34308 41.918 3.9107 41.918H59.4783C61.0459 41.918 62.3167 40.6358 62.3167 39.0542V3.94581C62.3167 2.36419 61.0459 1.08203 59.4783 1.08203Z" fill="white"/>
<path d="M59.4785 2.16407C60.4509 2.16407 61.2445 2.96477 61.2445 3.94581V39.0542C61.2445 40.0352 60.4509 40.8359 59.4785 40.8359H3.9109C2.93853 40.8359 2.14492 40.0352 2.14492 39.0542V3.94581C2.14492 2.96477 2.93853 2.16407 3.9109 2.16407H59.4785ZM59.4785 0H3.9109C1.75168 0 0 1.76732 0 3.94581V39.0542C0 41.2327 1.75168 43 3.9109 43H59.4785C61.6377 43 63.3894 41.2327 63.3894 39.0542V3.94581C63.3894 1.76732 61.6377 0 59.4785 0Z" fill="#95C53D"/>
<path d="M57.0658 1H6.93421C3.65684 1 1 2.82562 1 5.07764V37.9224C1 40.1744 3.65684 42 6.93421 42H57.0658C60.3432 42 63 40.1744 63 37.9224V5.07764C63 2.82562 60.3432 1 57.0658 1Z" fill="#95C53D"/>
<path d="M64.9336 12.5801H64.6476C63.5025 12.5801 62.5742 13.5167 62.5742 14.672V28.284C62.5742 29.4393 63.5025 30.3759 64.6476 30.3759H64.9336C66.0787 30.3759 67.007 29.4393 67.007 28.284V14.672C67.007 13.5167 66.0787 12.5801 64.9336 12.5801Z" fill="#95C53D"/>
</g>
<defs>
<clipPath id="clip0_588_3157">
<rect width="67" height="43" fill="white"/>
</clipPath>
</defs>
</svg>
