<?xml version="1.0" encoding="utf-8"?>
<!-- Generator: Adobe Illustrator 26.1.0, SVG Export Plug-In . SVG Version: 6.00 Build 0)  -->
<svg version="1.1" id="Layer_1" xmlns="http://www.w3.org/2000/svg" xmlns:xlink="http://www.w3.org/1999/xlink" x="0px" y="0px"
	 viewBox="0 0 110 110" style="enable-background:new 0 0 110 110;" xml:space="preserve">
<style type="text/css">
	.st0{fill:#DEDEDE;}
	.st1{opacity:0.5;fill:#BEEEE0;}
</style>
<g>
	<path class="st0" d="M96.65,48.74c-3.82,6.04-7.29,7.5-14.22,5.64c-1.88-0.5-2.36,0.67-3.14,1.71
		c-6.24,8.24-17.28,10.03-25.11,3.53c-2.78-2.31-4.47-3.15-8-1.29c-3.96,2.09-8.29,1.01-11.47-2.5c-1.4-1.55-2.71-2.07-4.87-1.74
		c-8.5,1.3-15.9-3.69-17.59-11.6c-1.73-8.13,2.95-15.58,11.4-17.98c1.5-0.43,2.43-1.2,3.24-2.51c4.27-6.99,11.56-8.92,18.74-5.02
		c1.15,0.63,2.04,1.14,2.73-0.52c1.87-4.47,5.41-6.97,9.94-8.28c2.32-0.72,4.58-0.66,6.76,0.5c3.5,1.78,6.51,4.07,8.05,7.85
		c0.49,1.19,1.33,1.41,2.55,1.38c9.98-0.27,15.13,4.64,15.3,14.55c0.02,1.27,0.27,2.25,1.4,2.94c1.96,1.2,3.23,3.04,4.38,4.96
		C98.48,43.17,98.66,45.97,96.65,48.74z"/>
	<circle class="st1" cx="26.87" cy="74.3" r="5"/>
	<circle class="st1" cx="49.87" cy="68.3" r="5"/>
	<circle class="st1" cx="44.87" cy="91.3" r="5"/>
	<circle class="st1" cx="66.87" cy="80.3" r="5"/>
	<circle class="st1" cx="82.87" cy="67.3" r="5"/>
	<circle class="st1" cx="79.87" cy="97.3" r="5"/>
</g>
</svg>
