<?xml version="1.0" encoding="utf-8"?>
<!-- Generator: Adobe Illustrator 26.1.0, SVG Export Plug-In . SVG Version: 6.00 Build 0)  -->
<svg version="1.1" id="Layer_1" xmlns="http://www.w3.org/2000/svg" xmlns:xlink="http://www.w3.org/1999/xlink" x="0px" y="0px"
	 viewBox="0 0 110 110" style="enable-background:new 0 0 110 110;" xml:space="preserve">
<style type="text/css">
	.st0{fill:none;stroke:#EDA713;stroke-width:3;stroke-miterlimit:10;}
	.st1{fill:#EDA713;}
	.st2{fill:#FFFFFF;}
</style>
<g>
	<g>
		<line class="st0" x1="45.92" y1="94.56" x2="63.28" y2="15.44"/>
	</g>
	<g>
		<line class="st0" x1="76.84" y1="90.88" x2="33.16" y2="22.67"/>
	</g>
	<g>
		<line class="st0" x1="20.89" y1="78.61" x2="89.11" y2="34.94"/>
	</g>
	<g>
		<line class="st0" x1="94.56" y1="65.45" x2="15.44" y2="48.1"/>
	</g>
	<g>
		<path class="st1" d="M54.62,73c-1.29,0-2.6-0.14-3.88-0.42c-9.69-2.13-15.85-11.74-13.73-21.44C38.82,42.95,46.2,37,54.58,37
			c1.29,0,2.6,0.14,3.88,0.42c4.7,1.03,8.71,3.83,11.3,7.88c2.59,4.05,3.45,8.87,2.42,13.56C70.38,67.05,63,73,54.62,73z"/>
		<path class="st2" d="M54.58,36v2h0c1.22,0,2.45,0.13,3.66,0.4c4.44,0.97,8.23,3.61,10.67,7.44c2.45,3.82,3.26,8.37,2.29,12.81
			C69.51,66.38,62.53,72,54.62,72c-1.22,0-2.45-0.13-3.66-0.4c-4.44-0.97-8.23-3.61-10.67-7.44s-3.26-8.37-2.29-12.81
			C39.69,43.62,46.67,38,54.58,38L54.58,36 M54.58,36c-8.73,0-16.59,6.06-18.54,14.93c-2.25,10.25,4.24,20.38,14.49,22.63
			c1.37,0.3,2.74,0.45,4.09,0.45c8.73,0,16.59-6.06,18.54-14.93c2.25-10.25-4.24-20.38-14.49-22.63C57.3,36.14,55.93,36,54.58,36
			L54.58,36z"/>
	</g>
</g>
</svg>
