<?xml version="1.0" encoding="utf-8"?>
<!-- Generator: Adobe Illustrator 26.1.0, SVG Export Plug-In . SVG Version: 6.00 Build 0)  -->
<svg version="1.1" id="Layer_1" xmlns="http://www.w3.org/2000/svg" xmlns:xlink="http://www.w3.org/1999/xlink" x="0px" y="0px"
	 viewBox="0 0 110 110" style="enable-background:new 0 0 110 110;" xml:space="preserve">
<style type="text/css">
	.st0{fill:none;stroke:#EDA713;stroke-width:3;stroke-miterlimit:10;}
	.st1{fill:#EDA713;}
	.st2{fill:#FFFFFF;}
	.st3{fill:#DEDEDE;}
</style>
<g>
	<g>
		<g>
			<line class="st0" x1="29.67" y1="85.09" x2="44.29" y2="18.43"/>
		</g>
		<g>
			<line class="st0" x1="55.71" y1="81.99" x2="18.92" y2="24.52"/>
		</g>
		<g>
			<line class="st0" x1="8.58" y1="71.65" x2="66.05" y2="34.86"/>
		</g>
		<g>
			<line class="st0" x1="70.65" y1="60.57" x2="3.99" y2="45.94"/>
		</g>
		<g>
			<path class="st1" d="M37,66.77c-1.08,0-2.17-0.12-3.23-0.35c-8.08-1.77-13.22-9.79-11.44-17.87c1.5-6.83,7.66-11.79,14.64-11.79
				c1.08,0,2.17,0.12,3.23,0.35c3.92,0.86,7.26,3.19,9.42,6.57c2.16,3.38,2.88,7.39,2.02,11.31C50.14,61.81,43.98,66.77,37,66.77z"
				/>
			<path class="st2" d="M36.97,35.75v2c1.01,0,2.02,0.11,3.02,0.33c7.54,1.65,12.34,9.14,10.68,16.68
				c-1.4,6.38-7.15,11.01-13.67,11.01c-1.01,0-2.02-0.11-3.02-0.33c-7.54-1.65-12.34-9.14-10.68-16.68
				c1.4-6.38,7.15-11.01,13.67-11.01L36.97,35.75 M36.97,35.75c-7.35,0-13.98,5.1-15.62,12.58c-1.89,8.64,3.57,17.17,12.21,19.06
				c1.16,0.25,2.31,0.38,3.45,0.38c7.35,0,13.98-5.1,15.62-12.58c1.89-8.63-3.57-17.17-12.21-19.06
				C39.26,35.87,38.1,35.75,36.97,35.75L36.97,35.75z"/>
		</g>
	</g>
	<path class="st3" d="M104.79,79.08c-3.22,5.09-6.14,6.32-11.98,4.75c-1.58-0.42-1.99,0.57-2.65,1.44
		c-5.25,6.94-14.56,8.45-21.15,2.98c-2.34-1.95-3.77-2.66-6.74-1.09c-3.34,1.76-6.99,0.85-9.66-2.11c-1.18-1.31-2.29-1.75-4.1-1.47
		c-7.16,1.1-13.4-3.11-14.82-9.78c-1.46-6.85,2.48-13.12,9.61-15.15c1.26-0.36,2.05-1.01,2.73-2.11c3.6-5.88,9.74-7.52,15.78-4.23
		c0.97,0.53,1.72,0.96,2.3-0.44c1.58-3.76,4.56-5.88,8.37-6.98c1.95-0.61,3.86-0.56,5.69,0.42c2.95,1.5,5.48,3.43,6.78,6.61
		c0.41,1.01,1.12,1.19,2.15,1.16c8.4-0.23,12.75,3.91,12.89,12.26c0.02,1.07,0.23,1.9,1.18,2.48c1.65,1.01,2.72,2.56,3.69,4.18
		C106.33,74.39,106.48,76.74,104.79,79.08z"/>
</g>
</svg>
